<svg xmlns="http://www.w3.org/2000/svg" viewBox="0 0 1024 768" font-family="PingFang SC, Microsoft YaHei, Noto Sans SC, sans-serif">
<defs>
  <linearGradient id="bg" x1="0%" y1="0%" x2="100%" y2="100%"><stop offset="0%" stop-color="#F8FAFC"/><stop offset="100%" stop-color="#EEF2F7"/></linearGradient>
  <linearGradient id="blue" x1="0%" y1="0%" x2="100%" y2="100%"><stop offset="0%" stop-color="#2563EB"/><stop offset="100%" stop-color="#6366F1"/></linearGradient>
  <linearGradient id="grn" x1="0%" y1="0%" x2="100%" y2="100%"><stop offset="0%" stop-color="#059669"/><stop offset="100%" stop-color="#10B981"/></linearGradient>
  <filter id="sh"><feDropShadow dx="0" dy="2" stdDeviation="6" flood-opacity="0.06"/></filter>
</defs>
<rect width="1024" height="768" fill="url(#bg)"/>
<text x="512" y="55" text-anchor="middle" font-size="26" font-weight="700" fill="#1E293B">一键汇总输出</text><text x="512" y="82" text-anchor="middle" font-size="14" fill="#64748B">处理完成后自动生成 Markdown 统计报告 · 四项核心指标一目了然</text>
  <g filter="url(#sh)"><rect x="40" y="130" width="180" height="70" rx="14" fill="#FFFFFF" stroke="#E2E8F0"/>
  <text x="130" y="170" text-anchor="middle" font-size="14" font-weight="600" fill="#475569">全部流水数据</text></g>
  <line x1="220" y1="165" x2="270" y2="165" stroke="#CBD5E1" stroke-width="2"/>
  <polygon points="265,160 275,165 265,170" fill="#CBD5E1"/>
  <g filter="url(#sh)"><rect x="275" y="130" width="180" height="70" rx="14" fill="url(#blue)"/>
  <text x="365" y="170" text-anchor="middle" font-size="14" font-weight="700" fill="#FFFFFF">一键汇总</text></g>
  <line x1="455" y1="165" x2="505" y2="165" stroke="#CBD5E1" stroke-width="2"/>
  <polygon points="500,160 510,165 500,170" fill="#CBD5E1"/>
  <g filter="url(#sh)"><rect x="510" y="110" width="480" height="240" rx="16" fill="#FFFFFF" stroke="#E2E8F0"/>
  <rect x="510" y="110" width="480" height="48" rx="16" fill="#F8FAFC"/>
  <rect x="510" y="142" width="480" height="16" fill="#F8FAFC"/>
  <text x="750" y="140" text-anchor="middle" font-size="16" font-weight="700" fill="#1E293B">统计报告</text>
  <g transform="translate(530,175)">
    <rect x="0" y="0" width="105" height="80" rx="12" fill="#EFF6FF"/><text x="52" y="30" text-anchor="middle" font-size="22" font-weight="800" fill="#2563EB">¥32650</text><text x="52" y="55" text-anchor="middle" font-size="12" fill="#64748B">总收入</text>
    <rect x="115" y="0" width="105" height="80" rx="12" fill="#F0FDF4"/><text x="167" y="30" text-anchor="middle" font-size="22" font-weight="800" fill="#059669">¥18342</text><text x="167" y="55" text-anchor="middle" font-size="12" fill="#64748B">总支出</text>
    <rect x="230" y="0" width="105" height="80" rx="12" fill="#FFF7ED"/><text x="282" y="30" text-anchor="middle" font-size="22" font-weight="800" fill="#EA580C">¥14307</text><text x="282" y="55" text-anchor="middle" font-size="12" fill="#64748B">净差额</text>
    <rect x="345" y="0" width="115" height="80" rx="12" fill="#F8FAFC"/><text x="402" y="30" text-anchor="middle" font-size="22" font-weight="800" fill="#64748B">1,186</text><text x="402" y="55" text-anchor="middle" font-size="12" fill="#64748B">有效记录数</text>
  </g></g>
  <g filter="url(#sh)"><rect x="80" y="270" width="380" height="200" rx="14" fill="#1E293B"/>
  <text x="270" y="305" text-anchor="middle" font-size="14" font-weight="700" fill="#94A3B8"># 统计报告</text>
  <text x="110" y="340" font-size="13" fill="#CBD5E1">- 总收入：¥32,650.00</text>
  <text x="110" y="370" font-size="13" fill="#CBD5E1">- 总支出：¥18,342.75</text>
  <text x="110" y="400" font-size="13" fill="#CBD5E1">- 净差额：¥14,307.25</text>
  <text x="110" y="430" font-size="13" fill="#CBD5E1">- 有效记录：1,186 条</text>
  <text x="110" y="455" font-size="11" fill="#64748B">报告生成时间：2026-07-11</text></g>
  <g filter="url(#sh)"><rect x="510" y="380" width="480" height="155" rx="16" fill="#FFFFFF" stroke="#E2E8F0"/>
  <text x="750" y="415" text-anchor="middle" font-size="15" font-weight="700" fill="#1E293B">报告特性</text>
  <g transform="translate(540,435)">
    <text x="0" y="0" font-size="13" fill="#2563EB">Markdown 格式，可复制编辑</text>
    <text x="0" y="28" font-size="13" fill="#2563EB">四项核心指标完整呈现</text>
    <text x="0" y="56" font-size="13" fill="#2563EB">退款已自动抵扣，数据真实准确</text>
    <text x="0" y="84" font-size="13" fill="#2563EB">支持导出和分享</text>
  </g></g>
  <g transform="translate(512,590)">
    <rect x="-100" y="0" width="200" height="44" rx="22" fill="url(#blue)"/>
    <text x="0" y="28" text-anchor="middle" font-size="15" font-weight="700" fill="#FFFFFF">一键生成报告</text>
  </g>
</svg>