<svg xmlns="http://www.w3.org/2000/svg" viewBox="0 0 1024 768" font-family="PingFang SC, Microsoft YaHei, Noto Sans SC, sans-serif">
<defs>
  <linearGradient id="bg" x1="0%" y1="0%" x2="100%" y2="100%"><stop offset="0%" stop-color="#F8FAFC"/><stop offset="100%" stop-color="#EEF2F7"/></linearGradient>
  <linearGradient id="blue" x1="0%" y1="0%" x2="100%" y2="100%"><stop offset="0%" stop-color="#2563EB"/><stop offset="100%" stop-color="#6366F1"/></linearGradient>
  <linearGradient id="grn" x1="0%" y1="0%" x2="100%" y2="100%"><stop offset="0%" stop-color="#059669"/><stop offset="100%" stop-color="#10B981"/></linearGradient>
  <filter id="sh"><feDropShadow dx="0" dy="2" stdDeviation="6" flood-opacity="0.06"/></filter>
</defs>
<rect width="1024" height="768" fill="url(#bg)"/>
<text x="512" y="55" text-anchor="middle" font-size="26" font-weight="700" fill="#1E293B">不计收支隔离</text><text x="512" y="82" text-anchor="middle" font-size="14" fill="#64748B">自动剥离非交易记录 · 还原真实收支口径 · 统计结果更精准</text>
  <g filter="url(#sh)"><rect x="80" y="140" width="360" height="260" rx="16" fill="#FFFFFF" stroke="#E2E8F0"/>
  <text x="260" y="175" text-anchor="middle" font-size="16" font-weight="700" fill="#1E293B">全部流水记录</text>
  <line x1="100" y1="190" x2="420" y2="190" stroke="#F1F5F9" stroke-width="1"/>
  <g transform="translate(110,205)">
    <rect x="0" y="0" width="220" height="36" rx="8" fill="#EFF6FF"/><text x="110" y="23" text-anchor="middle" font-size="13" fill="#2563EB">收入 ¥150.00</text>
    <rect x="0" y="44" width="220" height="36" rx="8" fill="#F0FDF4"/><text x="110" y="67" text-anchor="middle" font-size="13" fill="#059669">支出 ¥45.00</text>
    <rect x="0" y="88" width="220" height="36" rx="8" fill="#FFF7ED"/><text x="110" y="111" text-anchor="middle" font-size="13" fill="#EA580C">不计收支 ¥200.00</text>
    <rect x="0" y="132" width="220" height="36" rx="8" fill="#EFF6FF"/><text x="110" y="155" text-anchor="middle" font-size="13" fill="#2563EB">收入 ¥80.00</text>
    <rect x="0" y="176" width="220" height="36" rx="8" fill="#FFF7ED"/><text x="110" y="199" text-anchor="middle" font-size="13" fill="#EA580C">不计收支 ¥50.00</text>
  </g></g>
  <g transform="translate(460,240)">
    <rect x="0" y="0" width="100" height="50" rx="25" fill="url(#blue)"/>
    <text x="50" y="30" text-anchor="middle" font-size="18" font-weight="700" fill="#FFFFFF">筛选</text>
  </g>
  <g filter="url(#sh)"><rect x="580" y="140" width="360" height="260" rx="16" fill="#FFFFFF" stroke="#DBEAFE" stroke-width="2"/>
  <text x="760" y="175" text-anchor="middle" font-size="16" font-weight="700" fill="#1E40AF">有效收支记录</text>
  <line x1="600" y1="190" x2="920" y2="190" stroke="#DBEAFE" stroke-width="1"/>
  <g transform="translate(610,205)">
    <rect x="0" y="0" width="220" height="36" rx="8" fill="#EFF6FF"/><text x="110" y="23" text-anchor="middle" font-size="13" fill="#2563EB">收入 ¥150.00</text>
    <rect x="0" y="44" width="220" height="36" rx="8" fill="#F0FDF4"/><text x="110" y="67" text-anchor="middle" font-size="13" fill="#059669">支出 ¥45.00</text>
    <rect x="0" y="88" width="220" height="36" rx="8" fill="#EFF6FF"/><text x="110" y="111" text-anchor="middle" font-size="13" fill="#2563EB">收入 ¥80.00</text>
  </g></g>
  <g filter="url(#sh)"><rect x="280" y="460" width="460" height="72" rx="14" fill="#F1F5F9" stroke="#E2E8F0" stroke-dasharray="4 3"/>
  <text x="510" y="490" text-anchor="middle" font-size="14" fill="#94A3B8">已自动排除：不计收支记录 ¥250.00</text>
  <text x="510" y="515" text-anchor="middle" font-size="12" fill="#CBD5E1">PDF换行拆字 · 页码跨行 · 空行干扰 · 全部预处理修复</text></g>
  <g transform="translate(512,590)">
    <rect x="-180" y="0" width="120" height="36" rx="18" fill="#F1F5F9"/><text x="-120" y="24" text-anchor="middle" font-size="13" fill="#64748B">全部记录</text>
    <rect x="-30" y="0" width="120" height="36" rx="18" fill="url(#blue)"/><text x="30" y="24" text-anchor="middle" font-size="13" font-weight="600" fill="#FFFFFF">智能筛选</text>
    <rect x="120" y="0" width="120" height="36" rx="18" fill="#F0FDF4"/><text x="180" y="24" text-anchor="middle" font-size="13" font-weight="600" fill="#059669">有效数据</text>
  </g>
</svg>