<svg xmlns="http://www.w3.org/2000/svg" viewBox="0 0 1024 768" font-family="PingFang SC, Microsoft YaHei, Noto Sans SC, sans-serif">
<defs>
  <linearGradient id="bg" x1="0%" y1="0%" x2="100%" y2="100%"><stop offset="0%" stop-color="#F8FAFC"/><stop offset="100%" stop-color="#EEF2F7"/></linearGradient>
  <linearGradient id="blue" x1="0%" y1="0%" x2="100%" y2="100%"><stop offset="0%" stop-color="#2563EB"/><stop offset="100%" stop-color="#6366F1"/></linearGradient>
  <linearGradient id="grn" x1="0%" y1="0%" x2="100%" y2="100%"><stop offset="0%" stop-color="#059669"/><stop offset="100%" stop-color="#10B981"/></linearGradient>
  <filter id="sh"><feDropShadow dx="0" dy="2" stdDeviation="6" flood-opacity="0.06"/></filter>
</defs>
<rect width="1024" height="768" fill="url(#bg)"/>
<text x="512" y="55" text-anchor="middle" font-size="26" font-weight="700" fill="#1E293B">强大容错能力</text><text x="512" y="82" text-anchor="middle" font-size="14" fill="#64748B">页码跨行 · 空行干扰 · PDF换行拆字 · 多种场景预处理修复</text>
  <g filter="url(#sh)"><rect x="30" y="130" width="220" height="100" rx="14" fill="#FFFFFF" stroke="#E2E8F0"/>
  <text x="140" y="165" text-anchor="middle" font-size="14" font-weight="700" fill="#DC2626">页码标记跨行</text><text x="140" y="195" text-anchor="middle" font-size="12" fill="#64748B">页码被拆到两行</text></g>
  <g filter="url(#sh)"><rect x="270" y="130" width="220" height="100" rx="14" fill="#FFFFFF" stroke="#E2E8F0"/>
  <text x="380" y="165" text-anchor="middle" font-size="14" font-weight="700" fill="#DC2626">空行干扰</text><text x="380" y="195" text-anchor="middle" font-size="12" fill="#64748B">多余空白行混入</text></g>
  <g filter="url(#sh)"><rect x="510" y="130" width="220" height="100" rx="14" fill="#FFFFFF" stroke="#E2E8F0"/>
  <text x="620" y="165" text-anchor="middle" font-size="14" font-weight="700" fill="#DC2626">PDF换行拆字</text><text x="620" y="195" text-anchor="middle" font-size="12" fill="#64748B">文本换行被拆分</text></g>
  <g filter="url(#sh)"><rect x="750" y="130" width="240" height="100" rx="14" fill="#FFFFFF" stroke="#E2E8F0"/>
  <text x="870" y="165" text-anchor="middle" font-size="14" font-weight="700" fill="#DC2626">格式异常</text><text x="870" y="195" text-anchor="middle" font-size="12" fill="#64748B">截图倾斜或模糊</text></g>
  <g transform="translate(0,260)">
    <text x="140" y="20" text-anchor="middle" font-size="22" fill="#CBD5E1">↓</text><text x="380" y="20" text-anchor="middle" font-size="22" fill="#CBD5E1">↓</text><text x="620" y="20" text-anchor="middle" font-size="22" fill="#CBD5E1">↓</text><text x="870" y="20" text-anchor="middle" font-size="22" fill="#CBD5E1">↓</text>
  </g>
  <g filter="url(#sh)"><rect x="160" y="300" width="700" height="90" rx="16" fill="#FFFFFF" stroke="#DBEAFE" stroke-width="2"/>
  <text x="510" y="335" text-anchor="middle" font-size="16" font-weight="700" fill="#1E40AF">内置预处理引擎</text>
  <text x="510" y="365" text-anchor="middle" font-size="13" fill="#64748B">自动检测 · 智能修复 · 兜底策略 · 日志记录</text></g>
  <g transform="translate(0,420)">
    <text x="140" y="20" text-anchor="middle" font-size="24" fill="#059669">✓</text><text x="380" y="20" text-anchor="middle" font-size="24" fill="#059669">✓</text><text x="620" y="20" text-anchor="middle" font-size="24" fill="#059669">✓</text><text x="870" y="20" text-anchor="middle" font-size="24" fill="#059669">✓</text>
  </g>
  <g filter="url(#sh)"><rect x="160" y="480" width="700" height="110" rx="16" fill="#F0FDF4" stroke="#D1FAE5"/>
  <text x="510" y="515" text-anchor="middle" font-size="15" font-weight="700" fill="#059669">容错处理结果</text>
  <g transform="translate(200,540)">
    <rect x="0" y="0" width="150" height="36" rx="10" fill="#FFFFFF"/><text x="75" y="24" text-anchor="middle" font-size="13" fill="#059669">跨行合并修复</text>
    <rect x="170" y="0" width="140" height="36" rx="10" fill="#FFFFFF"/><text x="240" y="24" text-anchor="middle" font-size="13" fill="#059669">空行自动跳过</text>
    <rect x="330" y="0" width="150" height="36" rx="10" fill="#FFFFFF"/><text x="405" y="24" text-anchor="middle" font-size="13" fill="#059669">拆字智能拼接</text>
    <rect x="500" y="0" width="130" height="36" rx="10" fill="#FFFFFF"/><text x="565" y="24" text-anchor="middle" font-size="13" fill="#059669">异常降级</text>
  </g></g>
  <g transform="translate(512,650)">
    <rect x="-180" y="0" width="360" height="40" rx="20" fill="#F1F5F9"/>
    <text x="0" y="26" text-anchor="middle" font-size="13" fill="#64748B">无论文件质量如何 · 都能稳定解析</text>
  </g>
</svg>