<svg xmlns="http://www.w3.org/2000/svg" viewBox="0 0 1024 768" font-family="PingFang SC, Microsoft YaHei, Noto Sans SC, sans-serif">
<defs>
  <linearGradient id="bg" x1="0%" y1="0%" x2="100%" y2="100%"><stop offset="0%" stop-color="#F8FAFC"/><stop offset="100%" stop-color="#EEF2F7"/></linearGradient>
  <linearGradient id="blue" x1="0%" y1="0%" x2="100%" y2="100%"><stop offset="0%" stop-color="#2563EB"/><stop offset="100%" stop-color="#6366F1"/></linearGradient>
  <linearGradient id="grn" x1="0%" y1="0%" x2="100%" y2="100%"><stop offset="0%" stop-color="#059669"/><stop offset="100%" stop-color="#10B981"/></linearGradient>
  <filter id="sh"><feDropShadow dx="0" dy="2" stdDeviation="6" flood-opacity="0.06"/></filter>
</defs>
<rect width="1024" height="768" fill="url(#bg)"/>
<text x="512" y="55" text-anchor="middle" font-size="26" font-weight="700" fill="#1E293B">逐条精准提取</text><text x="512" y="82" text-anchor="middle" font-size="14" fill="#64748B">支付宝逐行分组法 · 微信时间戳分割法 · 每笔交易不遗漏</text>
  <g filter="url(#sh)"><rect x="60" y="140" width="180" height="60" rx="12" fill="#FFFFFF" stroke="#E2E8F0"/>
  <text x="150" y="173" text-anchor="middle" font-size="14" font-weight="600" fill="#475569">原始流水文件</text></g>
  <line x1="240" y1="170" x2="290" y2="170" stroke="#CBD5E1" stroke-width="2"/>
  <polygon points="285,165 295,170 285,175" fill="#CBD5E1"/>
  <g filter="url(#sh)"><rect x="295" y="140" width="180" height="60" rx="12" fill="url(#blue)"/>
  <text x="385" y="173" text-anchor="middle" font-size="14" font-weight="700" fill="#FFFFFF">解析引擎</text></g>
  <line x1="475" y1="170" x2="525" y2="170" stroke="#CBD5E1" stroke-width="2"/>
  <polygon points="520,165 530,170 520,175" fill="#CBD5E1"/>
  <g filter="url(#sh)"><rect x="530" y="110" width="434" height="140" rx="14" fill="#FFFFFF" stroke="#E2E8F0"/>
  <text x="550" y="135" font-size="15" font-weight="700" fill="#1E293B">提取字段</text>
  <line x1="550" y1="145" x2="944" y2="145" stroke="#F1F5F9" stroke-width="1"/>
  <g transform="translate(550,160)">
    <rect x="0" y="0" width="90" height="32" rx="8" fill="#EFF6FF"/><text x="45" y="21" text-anchor="middle" font-size="12" fill="#2563EB">金额</text>
    <rect x="100" y="0" width="110" height="32" rx="8" fill="#EFF6FF"/><text x="155" y="21" text-anchor="middle" font-size="12" fill="#2563EB">交易对方</text>
    <rect x="220" y="0" width="90" height="32" rx="8" fill="#EFF6FF"/><text x="265" y="21" text-anchor="middle" font-size="12" fill="#2563EB">时间</text>
    <rect x="320" y="0" width="80" height="32" rx="8" fill="#F1F5F9"/><text x="360" y="21" text-anchor="middle" font-size="12" fill="#64748B">备注</text>
  </g></g>
  <g filter="url(#sh)"><rect x="60" y="250" width="424" height="160" rx="14" fill="#FFFFFF" stroke="#E2E8F0"/>
  <text x="272" y="280" text-anchor="middle" font-size="15" font-weight="700" fill="#1E293B">解析算法对比</text>
  <rect x="90" y="300" width="180" height="40" rx="10" fill="#EFF6FF"/><text x="180" y="325" text-anchor="middle" font-size="13" font-weight="600" fill="#2563EB">支付宝：逐行分组法</text>
  <rect x="290" y="300" width="170" height="40" rx="10" fill="#F0FDF4"/><text x="375" y="325" text-anchor="middle" font-size="13" font-weight="600" fill="#059669">微信：时间戳分割法</text>
  <text x="272" y="380" text-anchor="middle" font-size="12" fill="#64748B">针对不同平台格式定制解析策略</text></g>
  <g filter="url(#sh)"><rect x="530" y="280" width="434" height="130" rx="14" fill="#FFFFFF" stroke="#E2E8F0"/>
  <text x="747" y="310" text-anchor="middle" font-size="15" font-weight="700" fill="#1E293B">解析结果</text>
  <text x="747" y="360" text-anchor="middle" font-size="44" font-weight="800" fill="url(#blue)">99.5%</text>
  <text x="747" y="390" text-anchor="middle" font-size="13" fill="#64748B">交易识别准确率 · 覆盖多版本格式</text></g>
  <g transform="translate(512,510)">
    <rect x="-280" y="0" width="110" height="36" rx="18" fill="#EFF6FF"/><text x="-225" y="24" text-anchor="middle" font-size="13" fill="#2563EB">原始文件</text>
    <line x1="-170" y1="18" x2="-120" y2="18" stroke="#CBD5E1" stroke-width="1.5"/>
    <rect x="-120" y="0" width="110" height="36" rx="18" fill="url(#blue)"/><text x="-65" y="24" text-anchor="middle" font-size="13" font-weight="600" fill="#FFFFFF">智能解析</text>
    <line x1="-10" y1="18" x2="40" y2="18" stroke="#CBD5E1" stroke-width="1.5"/>
    <rect x="40" y="0" width="110" height="36" rx="18" fill="#F0FDF4"/><text x="95" y="24" text-anchor="middle" font-size="13" fill="#059669">结构化数据</text>
    <line x1="150" y1="18" x2="200" y2="18" stroke="#CBD5E1" stroke-width="1.5"/>
    <rect x="200" y="0" width="80" height="36" rx="18" fill="#F1F5F9"/><text x="240" y="24" text-anchor="middle" font-size="13" fill="#94A3B8">报告</text>
  </g>
</svg>