<svg xmlns="http://www.w3.org/2000/svg" viewBox="0 0 1024 600">
  <defs>
    <linearGradient id="bg" x1="0" y1="0" x2="0" y2="1"><stop offset="0%" stop-color="#0f172a"/><stop offset="100%" stop-color="#1e293b"/></linearGradient>
    <linearGradient id="l1" x1="0" y1="0" x2="1" y2="0"><stop offset="0%" stop-color="#3b82f6"/><stop offset="100%" stop-color="#6366f1"/></linearGradient>
    <linearGradient id="l2" x1="0" y1="0" x2="1" y2="0"><stop offset="0%" stop-color="#06b6d4"/><stop offset="100%" stop-color="#22d3ee"/></linearGradient>
    <linearGradient id="l3" x1="0" y1="0" x2="1" y2="0"><stop offset="0%" stop-color="#f59e0b"/><stop offset="100%" stop-color="#fbbf24"/></linearGradient>
    <linearGradient id="l4" x1="0" y1="0" x2="1" y2="0"><stop offset="0%" stop-color="#10b981"/><stop offset="100%" stop-color="#34d399"/></linearGradient>
    <linearGradient id="l5" x1="0" y1="0" x2="1" y2="0"><stop offset="0%" stop-color="#8b5cf6"/><stop offset="100%" stop-color="#a78bfa"/></linearGradient>
  </defs>
  <rect width="1024" height="600" fill="url(#bg)"/>
  <text x="512" y="40" text-anchor="middle" fill="#93c5fd" font-size="22" font-weight="bold" font-family="sans-serif">560科技数字员工平台 — 五层技术架构</text>
  
  <rect x="40" y="70" width="944" height="70" rx="10" fill="#1e3a5f" stroke="#3b82f6" stroke-width="1.5" opacity="0.85"/>
  <text x="55" y="95" fill="#3b82f6" font-size="13" font-weight="bold" font-family="sans-serif">▎用户接入层</text>
  <text x="55" y="118" fill="#93c5fd" font-size="11" font-family="sans-serif">企业微信 · Web门户 · API · 访客入口 · SSO/OAuth</text>
  
  <rect x="40" y="155" width="944" height="70" rx="10" fill="#164e63" stroke="#06b6d4" stroke-width="1.5" opacity="0.85"/>
  <text x="55" y="180" fill="#06b6d4" font-size="13" font-weight="bold" font-family="sans-serif">▎认证鉴权层</text>
  <text x="55" y="203" fill="#67e8f9" font-size="11" font-family="sans-serif">RBAC角色权限 · 访客白名单 · 企业微信OAuth · JWT Session</text>
  
  <rect x="40" y="240" width="944" height="70" rx="10" fill="#713f12" stroke="#f59e0b" stroke-width="1.5" opacity="0.85"/>
  <text x="55" y="265" fill="#f59e0b" font-size="13" font-weight="bold" font-family="sans-serif">▎业务核心层</text>
  <text x="55" y="288" fill="#fcd34d" font-size="11" font-family="sans-serif">企微机器人 · RAG知识库 · 智能问答 · 访客工作台 · MCP工具调用</text>
  
  <rect x="40" y="325" width="944" height="70" rx="10" fill="#064e3b" stroke="#10b981" stroke-width="1.5" opacity="0.85"/>
  <text x="55" y="350" fill="#10b981" font-size="13" font-weight="bold" font-family="sans-serif">▎AI引擎层</text>
  <text x="55" y="373" fill="#6ee7b7" font-size="11" font-family="sans-serif">LLM(Qwen/DeepSeek) · Embedding · 向量检索 · 意图识别 · SSE流式</text>
  
  <rect x="40" y="410" width="944" height="70" rx="10" fill="#2e1065" stroke="#8b5cf6" stroke-width="1.5" opacity="0.85"/>
  <text x="55" y="435" fill="#8b5cf6" font-size="13" font-weight="bold" font-family="sans-serif">▎数据基础层</text>
  <text x="55" y="458" fill="#c4b5fd" font-size="11" font-family="sans-serif">PostgreSQL · ChromaDB/FAISS · Milvus · Redis · MinIO</text>

  <line x1="512" y1="140" x2="512" y2="155" stroke="#4b5563" stroke-width="2"/>
  <line x1="512" y1="225" x2="512" y2="240" stroke="#4b5563" stroke-width="2"/>
  <line x1="512" y1="310" x2="512" y2="325" stroke="#4b5563" stroke-width="2"/>
  <line x1="512" y1="395" x2="512" y2="410" stroke="#4b5563" stroke-width="2"/>
  
  <text x="512" y="520" text-anchor="middle" fill="#64748b" font-size="11" font-family="sans-serif">用户接入 → 认证鉴权 → 业务核心 → AI引擎 → 数据基础 | 五层分层架构</text>
  <text x="512" y="545" text-anchor="middle" fill="#6366f1" font-size="12" font-family="sans-serif">企微即入口 · 自然语言即界面 · 一人也能管千企</text>
</svg>
